<?xml version="1.0" encoding="UTF-8" standalone="no"?>
<!-- Created with Inkscape (http://www.inkscape.org/) -->

<svg
   width="210mm"
   height="297mm"
   viewBox="0 0 210 297"
   version="1.1"
   id="svg1"
   xml:space="preserve"
   inkscape:version="1.3.1 (9b9bdc1480, 2023-11-25, custom)"
   sodipodi:docname="cascarrabias.svg"
   xmlns:inkscape="http://www.inkscape.org/namespaces/inkscape"
   xmlns:sodipodi="http://sodipodi.sourceforge.net/DTD/sodipodi-0.dtd"
   xmlns="http://www.w3.org/2000/svg"
   xmlns:svg="http://www.w3.org/2000/svg"><sodipodi:namedview
     id="namedview1"
     pagecolor="#ffffff"
     bordercolor="#000000"
     borderopacity="0.25"
     inkscape:showpageshadow="2"
     inkscape:pageopacity="0.0"
     inkscape:pagecheckerboard="0"
     inkscape:deskcolor="#d1d1d1"
     inkscape:document-units="mm"
     inkscape:zoom="2.0359279"
     inkscape:cx="394.90593"
     inkscape:cy="218.08238"
     inkscape:window-width="1854"
     inkscape:window-height="1011"
     inkscape:window-x="66"
     inkscape:window-y="32"
     inkscape:window-maximized="1"
     inkscape:current-layer="layer1" /><defs
     id="defs1" /><g
     inkscape:label="Capa 1"
     inkscape:groupmode="layer"
     id="layer1"><path
       style="fill:none;stroke:#000000;stroke-width:0.731999"
       d="m 107.84905,22.689521 c 0.11722,-0.873271 0.049,-1.758935 -0.13953,-2.60735 -0.0382,-0.172019 -0.005,-0.355601 -0.0821,-0.517037 -0.0365,-0.07667 -0.16253,-0.08773 -0.2298,-0.125567 -0.1109,-0.06238 -0.21916,-0.186882 -0.32829,-0.228974 -0.76388,-0.294629 -1.60749,0.757362 -2.01899,1.233505 -0.15998,0.185109 -0.40981,0.294955 -0.59093,0.457949 -0.0875,0.07877 -0.21073,0.112971 -0.30366,0.184655 -0.33293,0.256823 -0.6739,0.526124 -1.05053,0.723854 -0.50626,0.265778 -1.04659,0.497444 -1.53477,0.79033 -0.15533,0.0932 -0.35662,0.128804 -0.52526,0.192042 -0.69857,0.261952 -1.386173,0.523622 -2.101066,0.753399 -0.59267,0.190492 -1.185281,0.397426 -1.780982,0.576128 -0.306512,0.09195 -0.616707,0.232287 -0.935628,0.273292 -0.776883,0.09989 -1.621364,0.13421 -2.330868,0.524424 -0.694073,0.381726 -1.39483,0.734708 -2.084649,1.122712 -0.211146,0.118764 -0.449136,0.189218 -0.656582,0.324994 -0.618395,0.404747 -1.228725,0.838512 -1.805602,1.299983 -0.48606,0.388821 -0.866666,0.884856 -1.280334,1.336913 -0.220787,0.241273 -0.466373,0.446045 -0.689412,0.686922 -0.22783,0.246052 -0.377798,0.56171 -0.574508,0.827262 -0.08598,0.11607 -0.201742,0.210627 -0.279048,0.33238 -0.05732,0.09027 -0.06215,0.196622 -0.123108,0.288065 -0.302228,0.453324 -0.585634,0.905711 -0.878181,1.366457 -0.126442,0.199138 -0.293878,0.37475 -0.393949,0.590901 -0.194297,0.419675 -0.375605,0.84536 -0.574508,1.26305 -0.04531,0.09515 -0.03168,0.223052 -0.06566,0.324996 -0.05063,0.15187 -0.159115,0.258283 -0.221597,0.398859 -0.0435,0.09787 -0.04785,0.222335 -0.08207,0.324993 -0.123066,0.369189 -0.252471,0.741302 -0.402157,1.100553 -0.139686,0.335253 -0.14188,0.736848 -0.262633,1.078394 -0.0613,0.173387 -0.157512,0.336627 -0.221596,0.509653 -0.0496,0.133925 -0.03737,0.296186 -0.07387,0.435788 -0.05088,0.194635 -0.148013,0.375811 -0.205182,0.568743 -0.05246,0.177025 -0.04131,0.367255 -0.08207,0.546581 -0.120456,0.53 -0.221144,1.049576 -0.30367,1.588048 -0.06044,0.394361 -0.227928,0.888166 -0.262633,1.263047 -0.01741,0.188015 -0.08292,0.358378 -0.123108,0.539199 -0.06787,0.305388 -0.110257,0.612365 -0.14773,0.915895 -0.02681,0.217131 -0.11548,0.418817 -0.139526,0.635217 -0.03409,0.306758 0.01469,0.622885 -0.0164,0.930672 -0.0737,0.72962 -0.08731,1.519454 -0.02463,2.252805 0.01418,0.165884 -0.01839,0.336865 0,0.502269 0.03535,0.318114 0.174512,0.608394 0.21339,0.923283 0.05455,0.441801 0.198027,1.486823 0.369329,1.846564 0.08601,0.180615 0.244268,0.327713 0.320082,0.509651 0.08994,0.215826 0.174961,0.470797 0.320085,0.657375 0.262911,0.338014 0.454382,0.718746 0.722241,1.056241 0.249476,0.314333 0.618358,0.504804 0.911008,0.76817 0.03667,0.033 0.482875,0.399344 0.484227,0.398857 0.04503,-0.01622 0.0814,-0.0504 0.123111,-0.07386"
       id="path1" /><path
       style="fill:none;stroke:#000000;stroke-width:0.731999"
       d="m 107.84905,22.689521 c 0.49015,0.05627 0.97839,0.113427 1.4691,0.162497 0.53443,0.05344 1.05593,0.06853 1.59222,0.08864 0.34583,0.01297 0.70052,0.06681 1.03411,0.155111 0.22473,0.05949 0.47099,0.06662 0.68941,0.140339 0.26641,0.08991 0.68542,0.543733 0.32009,0.79033 -0.21865,0.147584 -0.53191,0.169413 -0.77969,0.243746 -0.32248,0.09674 -0.6966,0.230315 -0.97667,0.41363 -0.0631,0.04129 -0.69235,0.474814 -0.673,0.509652 0.0258,0.04647 0.44736,0.0019 0.47602,0 0.75618,-0.04861 1.52363,-0.05578 2.28163,-0.02954 0.87461,0.03027 2.24633,0.637241 2.95462,1.115326 0.1476,0.09963 0.34325,0.109844 0.49244,0.206812 0.12273,0.07977 0.19934,0.21739 0.31187,0.310224 0.0994,0.08201 0.21824,0.142153 0.32009,0.221589 0.18331,0.14298 0.35179,0.361838 0.51706,0.531809 0.12866,0.132334 0.46653,0.460129 0.60733,0.568743 0.12906,0.09955 0.26911,0.177372 0.37754,0.302837 0.31841,0.368438 0.60681,0.762614 0.91922,1.137484 0.41085,0.493006 0.67622,1.076841 0.98486,1.632362 0.23569,0.424207 0.58321,0.810758 0.78791,1.248278 0.25235,0.539393 0.45728,1.096534 0.70582,1.63975 0.0518,0.113223 0.13285,0.192852 0.19697,0.295452 0.0894,0.143105 0.10638,0.325716 0.17236,0.480105 0.21883,0.51204 0.43263,1.024128 0.64837,1.528956 0.10958,0.256392 0.33826,0.465717 0.42678,0.731239 0.24473,0.734084 0.16998,1.551321 0.41857,2.297126 0.23065,0.691954 0.67759,1.286425 0.94384,1.957358 0.0425,0.107077 0.11446,0.212223 0.13952,0.324996 0.087,0.39162 0.0889,0.77375 0.1067,1.174417 0.0142,0.31841 0.0876,0.637979 0.13132,0.952825 0.0272,0.196104 -0.006,0.407456 0.008,0.605674 0.0726,0.980202 0.10861,1.98687 0.0246,2.969278 -0.0272,0.317701 0.0163,0.645528 -0.0492,0.96021 -0.0976,0.468588 -0.21466,0.917633 -0.35291,1.373846 -0.12374,0.408337 -0.32306,0.776558 -0.42678,1.196576 -0.22606,0.915461 -0.77304,1.830774 -1.3542,2.563032 -0.26501,0.333904 -0.60715,0.620249 -0.8946,0.930669 -0.19176,0.207087 -0.4165,0.463928 -0.64837,0.620445 -0.64009,0.432073 -1.30913,0.800338 -1.96154,1.211347 -0.85764,0.540303 -1.60936,1.249908 -2.54426,1.632361 -0.63036,0.257873 -1.36774,0.21451 -2.02719,0.384085 -0.16341,0.04202 -0.31859,0.120123 -0.48423,0.147727 -0.27183,0.0453 -0.54866,0.04781 -0.82073,0.08863 -0.10053,0.01508 -0.19933,0.09651 -0.30367,0.118181 -0.3275,0.06801 -0.66279,0.09543 -0.98487,0.192043 -0.25121,0.07536 -0.50419,0.179242 -0.75507,0.243747 -0.36146,0.09294 -0.74741,0.06909 -1.10799,0.177271 -0.73298,0.219908 -1.45744,0.497967 -2.23238,0.561353 -0.10794,0.0088 -0.47395,-0.04065 -0.53347,0.06648 -0.0449,0.08072 0.18381,0.02217 0.27616,0.02217"
       id="path4" /><path
       style="fill:none;stroke:#000000;stroke-width:0.731999"
       d="m 93.642253,58.535035 c 0.203189,0.06189 0.393311,0.14242 0.574508,0.251134 0.678622,0.407157 1.463688,0.546897 2.207755,0.775555 0.276868,0.08508 0.490752,0.25283 0.779693,0.302837 0.307707,0.05326 0.628708,0.125679 0.93563,0.162499 0.19767,0.02371 0.396481,-0.0095 0.590925,0.04432 0.143288,0.03967 0.314722,0.05824 0.459606,0.01476 0.04928,-0.01479 0.09822,-0.0031 0.147732,-0.02217 0.0042,-0.0016 0.08884,-0.04376 0.09028,-0.02955 0.0082,0.08077 0,0.162356 0,0.243535"
       id="path5" /><path
       style="fill:none;stroke:#000000;stroke-width:0.731999"
       d="m 87.782253,63.387808 c -0.476832,0.10899 -0.786148,-0.237816 -1.206471,-0.33238 -0.898858,-0.202229 -1.452207,-0.359278 -2.183135,-0.915898 -0.137662,-0.104836 -0.31355,-0.155781 -0.434985,-0.280678 -0.127019,-0.130638 -0.147863,-0.29714 -0.238012,-0.443177 -0.144885,-0.234717 -0.596341,-0.782767 -0.664789,-1.00453 -0.119957,-0.388644 -0.106865,-0.750528 -0.188767,-1.137481 -0.05555,-0.262459 -0.211772,-0.451599 -0.196974,-0.731245 0.02082,-0.393681 0.240255,-0.905324 0.459607,-1.226116 0.08756,-0.12805 0.213352,-0.228105 0.303668,-0.354539 0.356912,-0.499636 0.735412,-0.939535 1.345996,-1.122712 0.582803,-0.174844 1.318506,-0.141949 1.846636,0.15511 0.168939,0.09502 0.314632,0.229597 0.48423,0.324995 0.172958,0.09729 0.304916,0.237937 0.426778,0.391473 0.0109,0.01373 0.03175,0.06096 0.05745,0.0517 0.09762,-0.03514 0.201613,-0.183419 0.295463,-0.243747 0.231656,-0.148915 0.920994,-0.324392 1.181849,-0.23636 0.451596,0.1524 1.193689,1.330087 1.584002,1.388618 0.165682,0.02484 0.360736,-0.166619 0.51706,-0.206817 0.21137,-0.05435 0.553876,-0.03436 0.771485,-0.01476 0.631899,0.05689 1.245134,0.652037 1.493724,1.21135 0.06977,0.156975 0.06566,0.4366 0.06566,0.605671 0,0.778232 -0.173075,1.453015 -0.492438,2.171562 -0.140078,0.315172 -0.498287,0.852721 -0.714033,1.130097 -0.06284,0.0808 -0.127029,0.175596 -0.196975,0.251134 -0.02357,0.02545 -0.09028,0.01701 -0.09028,0.0517 0,0.0164 0.03564,-0.0092 0.04924,0 0.01474,0.0099 0.04198,0.100213 0.04924,0.118184 0.132119,0.326982 0.09028,0.930579 0.09028,1.292595 0,0.09752 0.05243,0.753396 0.139523,0.753396 0.01386,0 -0.03131,-0.07851 -0.03283,-0.08125"
       id="path6" /><path
       style="fill:none;stroke:#000000;stroke-width:0.731999"
       d="m 84.778391,55.839052 c 0.257159,-0.219125 0.521531,-0.430061 0.771483,-0.657375 0.0793,-0.07212 0.08572,-0.368491 0.14773,-0.480111 0.268737,-0.483714 0.851932,-0.766349 1.387033,-0.819875 0.51766,-0.05178 0.876903,0.443506 1.272125,0.672151 0.292534,0.169238 0.666602,0.410937 0.993081,0.494879 0.183042,0.04706 0.380641,0.114355 0.533475,0.228976 0.423878,0.317894 0.887068,0.65492 1.255712,1.034076 0.210283,0.216278 0.317265,0.489802 0.459608,0.746011 0.07925,0.142645 0.24584,0.261432 0.344704,0.39148"
       id="path7" /><path
       style="fill:none;stroke:#000000;stroke-width:0.731999"
       d="m 84.392647,62.13953 c -0.473847,0.645377 -0.532963,1.431124 -0.738653,2.171563 -0.2037,0.733258 -0.264477,1.293114 -0.295463,2.045991 -0.02103,0.511334 -0.05898,0.996735 0.04104,1.506797 0.07382,0.376462 0.220776,0.736414 0.352912,1.093165 0.09496,0.256389 0.197167,0.546841 0.361119,0.76817 0.07316,0.09876 0.181832,0.153141 0.254426,0.251135 0.133215,0.179824 0.194654,0.365569 0.344707,0.539197 0.09049,0.104711 0.23776,0.144759 0.344705,0.228973 0.860525,0.677624 1.986224,0.864195 3.061316,0.864195 0.125045,0 0.245901,0.04431 0.369327,0.04431 0.659622,0 1.271219,-0.206372 1.846638,-0.502264 0.142907,-0.07349 0.304318,-0.12615 0.426778,-0.23636 0.789903,-0.71089 0.815052,-2.074397 1.206468,-3.043142 0.552225,-1.366732 1.232665,-2.718057 2.281627,-3.766992 0.411625,-0.411615 0.748493,-0.877477 1.255712,-1.181801"
       id="path8" /><path
       style="fill:none;stroke:#000000;stroke-width:0.731999"
       d="m 112.62551,58.815718 c 0.12864,0.08371 0.25843,0.165674 0.38592,0.251127 0.18109,0.12138 0.31656,0.352422 0.49243,0.494879 0.33812,0.273873 0.71431,0.477012 1.06695,0.723855 0.0562,0.03931 0.0824,0.128328 0.13132,0.177271 0.24498,0.244967 0.46089,0.533868 0.72224,0.753396 0.43951,0.369181 0.89507,0.719526 1.36241,1.063625 0.18862,0.138877 0.32075,0.357875 0.50064,0.509651 0.22364,0.188682 0.49576,0.359499 0.69762,0.561355 0.27809,0.278091 0.42582,0.676035 0.69762,0.974985 0.11179,0.122959 0.27094,0.199514 0.39395,0.310221 0.39655,0.35692 0.8046,0.709594 1.06694,1.181801 0.12047,0.216845 0.19092,0.498859 0.27084,0.738629 0.0624,0.187328 0.20922,0.34185 0.28726,0.524426 0.0554,0.129661 0.0722,0.274664 0.13132,0.398857 0.10672,0.224104 0.17451,0.48927 0.24621,0.731239 0.0302,0.10201 0.11439,0.180964 0.15594,0.280675 0.074,0.177586 0.1642,0.848892 0.13952,1.048851 -0.0185,0.149754 -0.078,0.288531 -0.0985,0.43579 -0.0409,0.293994 0.0169,0.482407 -0.29547,0.57613"
       id="path9" /><path
       style="fill:none;stroke:#000000;stroke-width:0.731999"
       d="m 90.761499,70.914402 c 0.393948,-0.209277 0.777017,-0.44046 1.181846,-0.62783 0.312735,-0.144745 1.593143,-0.126336 2.109271,-0.169881 1.454097,-0.122679 2.923916,-0.301895 4.382688,-0.347154 0.688152,-0.02135 1.379562,-0.0074 2.068236,-0.0074 1.12093,0 2.23642,-0.101555 3.35677,-0.125569 0.48683,-0.01042 0.97411,0.0042 1.4609,-0.0074 0.67061,-0.01588 1.34048,-0.09263 2.01078,-0.103407 1.89831,-0.03052 3.79878,0.03381 5.69585,0.08125 1.33217,0.03331 2.66482,0.140335 3.99695,0.140335 0.91711,0 1.85102,-0.03905 2.76585,0.02955 0.29714,0.02228 0.58764,0.04431 0.88638,0.04431 0.0848,0 0.16962,0 0.25443,0 0.0164,0 0.0614,-0.01098 0.0492,0 -0.1251,0.11261 -0.53459,-0.09389 0.29545,0.155115"
       id="path10" /><path
       style="fill:none;stroke:#000000;stroke-width:0.731999"
       d="m 107.62443,42.29265 c 0.17062,-0.06401 0.34949,-0.109322 0.51187,-0.192039 0.56954,-0.290125 1.04092,-0.747181 1.60042,-1.056236 0.31294,-0.17286 0.66109,-0.275182 0.97667,-0.443177 0.20709,-0.110242 0.39238,-0.258428 0.59913,-0.36931 0.2124,-0.113914 0.43255,-0.213954 0.65658,-0.30284 0.29392,-0.116614 0.7538,-0.238635 0.89948,-0.301339 0.46069,-0.198292 0.47696,-0.235601 0.94716,-0.415126 0,0 0.47554,-0.23101 0.72224,-0.324996 0.21443,-0.08169 0.44603,-0.11561 0.65659,-0.206816 0.25346,-0.109788 0.4702,-0.293216 0.72223,-0.406244 0.20059,-0.08996 0.4229,-0.124858 0.62376,-0.214202 0.32011,-0.142384 0.88624,-0.515585 0.91921,-0.509651 0.0299,0.0054 -5.6e-4,0.492877 0.0164,0.553969 0.0993,0.357658 0.40294,0.666882 0.52526,0.997146 0.1074,0.28998 0.0416,0.743342 -0.008,1.041463 -0.12122,0.728111 -0.18536,1.966026 -0.53348,2.592573 -0.23733,0.427151 -0.66377,1.190762 -1.08336,1.455094 -0.35465,0.22343 -0.71146,0.458068 -1.06694,0.679538 -0.24659,0.153627 -0.45288,0.374486 -0.69762,0.53181 -0.30973,0.199104 -0.71141,0.301992 -1.05874,0.413631 -0.67925,0.218321 -1.4881,0.501396 -2.20776,0.265903 -0.76504,-0.250341 -1.1257,-0.273621 -1.77277,-0.797713 -0.23743,-0.192307 -0.42817,-0.546753 -0.58272,-0.805103 -0.0739,-0.123563 -0.20446,-0.196983 -0.27084,-0.324996 -0.11975,-0.230942 -0.12798,-0.479353 -0.28725,-0.694309 -0.0772,-0.104158 -0.88358,-0.842794 -0.87818,-0.878964 0.0146,-0.0978 0.0472,-0.192043 0.0708,-0.288066 z"
       id="path11"
       sodipodi:nodetypes="caaaaassaaaassssssssssssssscc" /><path
       style="fill:none;stroke:#000000;stroke-width:0.731999"
       d="m 90.252644,37.609764 c 0.717971,0.05054 1.278311,0.567653 1.895883,0.901123 0.361227,0.195051 0.769667,0.312687 1.140811,0.494879 0.354807,0.174175 0.652579,0.419518 0.99308,0.613061 0.251658,0.143042 0.448201,0.364059 0.681204,0.53181 0.278662,0.200625 0.737102,0.366598 1.05053,0.517038 0.291624,0.139972 0.568357,0.342014 0.845352,0.502266 0.790829,0.457526 1.71836,0.548286 2.503218,0.989759 0.07108,0.03998 0.311877,0.237847 0.311877,0.317608 0,0.13811 -0.654595,0.834115 -0.763275,0.997146 -0.39498,0.592503 -0.840793,1.210429 -1.337789,1.713611 -0.577649,0.584838 -1.1283,0.930016 -1.977951,0.974987 -0.219675,0.01164 -0.444193,0.04456 -0.664792,0.01476 -0.188455,-0.02545 -0.374483,-0.112919 -0.558093,-0.162499 -0.245042,-0.06617 -0.519613,-0.08578 -0.755071,-0.184656 -0.0978,-0.04107 -0.172093,-0.10823 -0.270841,-0.14773 -0.100152,-0.04006 -0.216865,-0.04614 -0.311875,-0.09602 -0.09773,-0.05131 -0.179448,-0.137744 -0.27084,-0.199427 -0.272772,-0.184105 -0.67209,-0.395573 -0.968457,-0.539194 -0.307327,-0.148931 -0.955263,-0.490405 -1.198264,-0.709083 -0.250796,-0.225693 -0.429178,-0.502325 -0.648374,-0.753399 -0.148731,-0.170362 -0.33714,-0.326911 -0.410364,-0.546584 -0.144499,-0.433493 -0.313539,-1.053095 -0.270841,-1.514181 0.01545,-0.167011 0.06518,-0.327628 0.08207,-0.494882 0.01505,-0.149058 -0.01715,-0.302239 0.0082,-0.450559 0.03478,-0.203486 0.177469,-0.391385 0.205181,-0.590902 0.01548,-0.111495 -0.0093,-0.229365 0.0082,-0.339767 0.08062,-0.507892 0.417521,-1.407708 0.681205,-1.83918 z"
       id="path12" /><path
       style="fill:none;stroke:#000000;stroke-width:0.731999"
       d="m 101.62793,44.648871 c 0.0246,-0.327861 0.2253,-0.437751 0.40216,-0.649991 0.39024,-0.468318 0.90619,-0.360469 1.46089,-0.39886 0.5484,-0.03795 1.05445,0.02681 1.55939,0.221586 0.12744,0.04916 0.26823,0.0032 0.39395,0.0517 0.0897,0.0346 0.19413,0.05042 0.27904,0.08863 0.0824,0.03706 0.36506,0.445397 0.32009,0.546585 -0.0469,0.105404 -0.23394,0.204266 -0.31188,0.295449 -0.0759,0.08883 -0.12524,0.193964 -0.21339,0.273291 -0.27561,0.248049 -0.6361,0.416949 -0.92742,0.649991 -0.10595,0.08475 -0.63329,0.60833 -0.71403,0.620445 -0.062,0.0093 -0.26749,-0.138609 -0.32829,-0.169881 -0.28782,-0.148021 -0.55946,-0.577204 -0.82073,-0.782944 -0.10449,-0.08228 -0.22852,-0.188399 -0.34471,-0.251134 -0.11957,-0.06456 -0.30904,-0.08609 -0.41036,-0.177271 -0.11614,-0.104516 -0.22981,-0.211738 -0.34471,-0.317606 z"
       id="path13" /><path
       style="fill:none;stroke:#000000;stroke-width:0.731999"
       d="m 98.394262,48.113023 c 0.112863,-0.296894 0.07184,-0.186581 0.123113,-0.324995 0.05285,-0.142679 0.129056,-0.251302 0.246216,-0.347155 0.120748,-0.09879 0.259287,-0.110791 0.410366,-0.110791 0.452538,0 0.473774,0.335737 0.648375,0.649991 0.03741,0.06733 0.140785,0.291192 0.229808,0.251132 0.12083,-0.05438 0.28747,-0.536999 0.39394,-0.664763 0.26277,-0.315315 0.90098,-0.249632 1.21468,-0.04432 0.19611,0.128357 0.44319,0.376693 0.44319,0.620445 0,0.05014 0.0901,0.380469 0.13132,0.361929 0.13117,-0.05903 0.2558,-0.308753 0.35291,-0.413631 0.41385,-0.446926 0.89105,-0.916853 1.55118,-0.738629 0.51795,0.139837 0.42269,0.85281 0.89459,1.100555 0.0225,0.01183 0.0566,0.05497 0.0821,0.0517 0.13069,-0.0168 0.24878,-0.519731 0.3447,-0.62045 0.14891,-0.156337 0.45088,-0.219279 0.64838,-0.29545 0.73708,-0.284279 0.71998,0.55857 1.08336,0.613061 0.0816,0.01222 0.22393,-0.231074 0.28725,-0.288065 0.15577,-0.14019 0.52406,-0.305851 0.73045,-0.33238 0.12305,-0.01582 0.21034,0.0388 0.30367,0.110794 0.35346,0.272671 0.3247,0.428022 0.49244,0.790329 0.0581,0.125484 0.16894,0.216521 0.2298,0.339767 0.13466,0.272695 0.19742,0.592839 0.26263,0.886354 0.0462,0.207899 0.13524,0.421574 0.14774,0.635217 0.0311,0.53203 0.009,1.081564 0.0739,1.610204 0.0737,0.596768 0.5833,1.764228 0.27084,2.326672 -0.0661,0.118988 -0.2646,0.227684 -0.37754,0.295449 -0.44804,0.268825 -1.13492,0.309153 -1.64145,0.347152 -1.17645,0.08826 -2.35038,0.08864 -3.53734,0.08864 -1.48627,0 -2.96349,0.156786 -4.448343,0.02955 -0.505293,-0.0433 -1.081297,-0.07201 -1.542968,-0.302839 -0.382124,-0.19105 -0.495467,-0.489064 -0.681204,-0.856806 -0.13407,-0.265446 -0.321916,-0.550674 -0.369329,-0.849415 -0.03728,-0.234876 0.02588,-0.455131 0.04104,-0.686925 0.01984,-0.303834 -0.0241,-0.612428 0,-0.915897 0.03936,-0.495777 0.217824,-1.01142 0.336498,-1.492025 0.158117,-0.640334 0.274851,-1.251006 0.623752,-1.824406 z"
       id="path14" /><path
       style="fill:none;stroke:#000000;stroke-width:0.731999"
       d="m 97.393034,53.032273 c 0.257143,0.05417 0.511326,0.125039 0.77143,0.162497 0.116466,0.01677 0.989748,-0.828453 1.165434,-0.960213 0.248631,-0.186465 0.554669,-0.279974 0.828932,-0.421016 0.23148,-0.119041 0.40784,-0.267827 0.66479,-0.354541 0.5446,-0.183793 1.15851,-0.06331 1.70711,-0.02217 0.24886,0.01868 0.51237,-0.0074 0.76328,-0.0074 0.22895,0 0.45327,-0.04091 0.6812,-0.0517 0.57553,-0.02725 1.18071,0.03758 1.74815,0.08863 0.40215,0.03618 0.80159,0.03171 1.19006,0.155112 0.46824,0.148738 0.81834,0.527056 1.25571,0.723855 0.11494,0.05172 0.33859,0.02635 0.42678,0.125566 0.20963,0.235815 0.43117,0.475245 0.68121,0.67215 0.0561,0.04416 0.36387,0.179764 0.38574,0.228973 0.025,0.05623 -0.0955,0.155448 -0.0739,0.19943 0.11988,0.243864 0.26815,0.472715 0.40222,0.709073"
       id="path15" /><path
       style="fill:none;stroke:#000000;stroke-width:0.731999"
       d="m 107.62443,37.513744 c 0.0808,-0.291227 0.18928,-0.563962 0.27386,-0.849421 0.19813,-0.668634 0.5889,-1.660089 1.1244,-2.142014 0.0803,-0.07227 0.18867,-0.0935 0.27905,-0.147725 0.56734,-0.340394 1.1737,-0.515374 1.83022,-0.384087 0.48571,0.09713 0.83656,0.389413 1.18185,0.731239 0.0163,0.01614 0.18877,0.106421 0.18877,0.118181 0,0.04023 -0.0764,0.02537 -0.1149,0.03693 -0.093,0.0279 -0.16906,0.07681 -0.25443,0.118181 -0.47183,0.228653 -0.99486,0.407247 -1.45269,0.664763 -0.49237,0.276945 -1.24923,0.537771 -1.68249,0.878965 -0.20563,0.16193 -0.479,0.317873 -0.65658,0.509651 -0.0988,0.106735 -0.25063,0.408765 -0.40216,0.43579 -0.10379,0.01852 -0.20993,0.01969 -0.3149,0.02955 z"
       id="path16" /><path
       style="fill:none;stroke:#000000;stroke-width:0.731999"
       d="m 95.693607,34.965483 c 0.02751,0.05417 0.02837,0.190008 0.08254,0.162497 0.05416,-0.02751 -0.135488,-0.192281 -0.08254,-0.162497 0.156263,0.0879 0.271796,0.233956 0.410829,0.347155 0.193863,0.157842 0.408615,0.247764 0.582716,0.43579 0.106836,0.115379 0.494721,0.209338 0.640167,0.302837 0.51969,0.334068 1.053359,0.634939 1.59221,0.938053 0.240839,0.135478 0.48913,0.226743 0.722244,0.384085 0.122383,0.0826 0.189412,0.214884 0.287252,0.317609 0.04349,0.04566 0.147735,0.181242 0.147735,0.118181 0,-0.06179 -0.142004,-0.152185 -0.172357,-0.206817 -0.114707,-0.206462 -0.224583,-0.435136 -0.320082,-0.649988 -0.113488,-0.255334 -0.181658,-0.5348 -0.279048,-0.797719 -0.09194,-0.248211 -0.234807,-0.459592 -0.361119,-0.686919 -0.06636,-0.11943 -0.04837,-0.270399 -0.123111,-0.391472 -0.128611,-0.208341 -0.3858,-0.383212 -0.574508,-0.531813 -0.106559,-0.08391 -0.167847,-0.217535 -0.270841,-0.310221 -0.437936,-0.394115 -0.723159,-0.516972 -1.313167,-0.472721 -0.131186,0.0098 -0.380169,0.04601 -0.492434,0.118179 -0.149048,0.09581 -1.049034,0.80781 -0.960253,0.967603 0.01537,0.02765 0.129612,-7.94e-4 0.15594,0.0074 0.110263,0.03387 0.218552,0.07386 0.327827,0.110794 z"
       id="path17" /><path
       style="fill:none;stroke:#000000;stroke-width:0.731999"
       d="m 84.991778,44.970805 c 0.04125,-1.210569 -0.430096,-4.052141 0.27084,-5.83947 0.171633,-0.437645 0.362794,-0.896745 0.590926,-1.30737 0.205192,-0.369334 0.495348,-0.709456 0.672997,-1.093166 0.15208,-0.328488 0.300834,-0.666033 0.508849,-0.960215 0.25699,-0.36344 0.62098,-0.622871 0.927426,-0.938054 0.122118,-0.1256 0.204139,-0.294513 0.336497,-0.413631 0.326249,-0.293616 0.63165,-0.605385 0.960252,-0.901123 0.160681,-0.144613 0.266803,-0.343522 0.426778,-0.487492 0.199451,-0.179499 0.448998,-0.362945 0.681204,-0.502267 0.868016,-0.520797 1.815539,-0.968039 2.806888,-1.211347 0.628804,-0.154328 1.290225,-0.202906 1.928709,-0.302836 0.600983,-0.09406 1.260658,-0.26561 1.871261,-0.228974 0.350922,0.02106 0.699021,0.04591 1.050531,0.05909 0.132635,0.005 0.249692,0.07358 0.377536,0.08125 0.288364,0.0173 0.546711,0.01741 0.828934,0.07386 0.601126,0.120219 1.200684,0.160411 1.780984,0.369313 0.27804,0.100095 0.53359,0.242094 0.80431,0.354539 0.29669,0.123235 0.59552,0.194112 0.88639,0.324998 0.25164,0.113237 0.4737,0.281324 0.73865,0.376698 0.62927,0.226515 2.09993,-0.188904 2.65916,-0.524422 0.87965,-0.527773 2.02301,-0.695918 3.02028,-0.864193 0.23692,-0.03998 0.469,-0.08559 0.70582,-0.132953 0.11644,-0.02328 0.23553,-0.03057 0.35292,-0.0517 0.038,-0.0069 0.15011,0.0011 0.1149,-0.01476 -0.0899,-0.04043 -0.19711,0 -0.29567,0 0.95013,-0.239158 1.94434,-0.116063 2.90558,-0.02956 0.28087,0.02528 0.57514,0.0085 0.85356,0.04432 0.17793,0.02288 0.37396,0.114997 0.54989,0.162498 0.2184,0.05897 0.45234,0.08341 0.66479,0.155111 0.12621,0.0426 0.22842,0.136637 0.3447,0.199429 0.0873,0.04712 0.18191,0.06339 0.27084,0.103407 0.2428,0.109255 0.49466,0.331985 0.70583,0.494881 0.10822,0.08348 0.25318,0.09281 0.36933,0.162498 0.27578,0.165464 0.56642,0.369426 0.7879,0.5909 0.19457,0.194568 0.36502,0.453184 0.53347,0.67215 0.41694,0.54199 0.85507,1.057204 1.21468,1.639749 0.10886,0.176344 0.27592,0.32106 0.38574,0.502265 0.32015,0.528255 0.57947,1.106936 0.85356,1.661909 0.11183,0.226445 0.36411,0.509745 0.51706,0.723852 0.17544,0.245607 0.1935,0.582513 0.36932,0.819877 0.41346,0.558161 0.72933,1.199677 0.9028,1.876109 0.16315,0.636186 0.30877,1.322876 0.26264,1.986903 -0.056,0.806748 -0.21295,2.161909 0.008,2.858482"
       id="path18" /><path
       style="fill:none;stroke:#000000;stroke-width:0.731999"
       d="m 84.991778,44.970805 c 0.140803,-0.479025 0.620061,-0.682281 0.9028,-1.045789 0.362723,-0.466334 0.609124,-1.006779 0.97667,-1.469866 0.735761,-0.927024 1.389041,-1.540817 1.879465,-2.644281 0.15526,-0.349334 0.378709,-0.675833 0.582718,-0.997145 0.02117,-0.03335 0.230519,-0.272323 0.229802,-0.273291 -0.180274,-0.243343 -0.0055,0.605959 0.0082,0.908494"
       id="path19" /><path
       style="fill:none;stroke:#000000;stroke-width:0.731999"
       d="m 90.252644,37.609764 c 0.971074,0.08476 0.820272,-5.3e-4 1.345994,-0.258519 0.160356,-0.07872 0.320003,-0.25005 0.476022,-0.310222 0.289796,-0.11177 0.577154,-0.241945 0.853557,-0.384085 0.700087,-0.360024 1.567709,-0.227909 2.306245,-0.132953 0.758857,0.09757 1.933716,0.924243 2.445772,1.477251 0.294846,0.318429 0.734449,0.579742 1.058735,0.871577 0.396367,0.356703 0.609907,1.257305 0.714037,1.772703 0.119972,0.59382 0.327996,0.970473 -0.09028,1.514184"
       id="path20" /><path
       style="fill:none;stroke:#000000;stroke-width:0.731999"
       d="m 86.690686,51.628881 c 0.185327,-0.327359 0.312637,-0.697011 0.566301,-0.982372 0.546933,-0.615272 1.305832,-0.901496 2.05182,-1.211344 0.220562,-0.09161 0.417946,-0.241477 0.64017,-0.332383 0.564398,-0.230883 1.148574,-0.418148 1.71532,-0.649989 0.633383,-0.259101 1.205748,-0.743831 1.912297,-0.834649 0.223155,-0.02868 0.442685,-0.118121 0.664787,-0.140338 0.513141,-0.05133 1.016492,-0.116088 1.518348,-0.228973 0.0972,-0.02185 0.20483,0.0024 0.30367,-0.0074 0.297874,-0.02978 0.651389,-0.164192 0.911006,-0.310223 0.800645,-0.450353 1.352121,-1.471502 1.772774,-2.260196 0.110935,-0.207994 0.257085,-0.390059 0.352912,-0.605671 0.04768,-0.10728 0.03785,-0.230325 0.08207,-0.33977 0.15277,-0.378073 0.445598,-1.097856 0.483764,-1.212794"
       id="path21" /><path
       style="fill:none;stroke:#000000;stroke-width:0.731999"
       d="m 84.991778,44.970805 c -0.295879,0.569407 -0.441653,2.640076 -0.221594,3.976868 0.07248,0.440319 0.340029,0.836115 0.4514,1.270436 0.03117,0.121552 0.09223,0.204158 0.172352,0.302834 0.193371,0.238146 0.505169,0.3814 0.714034,0.598287 0.103881,0.107873 0.145338,0.281556 0.287256,0.354541 0.127034,0.06533 0.337597,-0.0141 0.434982,0.04432 0.108702,0.06521 -0.08759,0.103412 -0.139522,0.110792"
       id="path22" /><path
       style="fill:none;stroke:#000000;stroke-width:0.731999"
       d="m 107.62443,42.29265 c 0.078,-0.651634 0.0753,-1.284821 0.26565,-1.913038 0.31074,-1.025419 0.45233,-1.732801 1.36241,-2.415309 0.0591,-0.04435 0.13621,-0.05625 0.19698,-0.09602 1.00496,-0.657744 1.87461,-1.098159 3.07773,-1.233506 0.22546,-0.02537 0.36834,0.07317 0.57451,0.08864 0.45705,0.03428 0.91506,-0.05205 1.37061,-0.01476 0.30954,0.02532 0.61856,0.08553 0.92742,0.110792 0.50117,0.041 0.66765,0.02716 1.10799,0.310227 0.0156,0.01 0.14694,0.04218 0.14773,0.04432 0.008,0.02064 -0.0385,0.02984 -0.041,0.0517 -0.0316,0.277505 -0.0492,0.556429 -0.0739,0.834646"
       id="path23" /><path
       style="fill:none;stroke:#000000;stroke-width:0.731999"
       d="m 118.00143,39.101789 c 0.24349,0.103407 0.49102,0.197789 0.73047,0.310221 0.23713,0.111339 1.04971,1.355791 1.31317,1.684068 0.15734,0.196059 0.36457,0.310152 0.53347,0.487492 0.22417,0.235389 0.4488,0.479859 0.64016,0.746014 0.0743,0.103325 0.089,0.240866 0.13953,0.354541 0.20868,0.469525 0.46178,0.905206 0.61555,1.40339 0.0404,0.130879 0.0993,0.276434 0.17235,0.39147 0.0317,0.04997 0.11366,0.121718 0.0985,0.110791 -0.23595,-0.169883 0.15335,0.561142 0.24384,0.837443"
       id="path24" /><path
       style="fill:none;stroke:#000000;stroke-width:0.731999"
       d="m 108.99004,44.478985 c -0.13199,0.681979 0.2364,0.880938 0.59074,1.351687 0.26651,0.354047 0.48774,0.82573 0.85356,1.10794 0.79477,0.613108 2.49769,0.678812 3.48809,0.997141 0.52989,0.170314 0.95754,0.462637 1.44449,0.701696 0.24465,0.120107 0.51969,0.171151 0.76327,0.288065 0.40184,0.192873 0.78946,0.392469 1.20647,0.561356 0.24438,0.09897 0.49883,0.165277 0.74686,0.251129 0.1041,0.03603 0.18717,0.117456 0.28726,0.162499 0.4533,0.203981 0.90886,0.387374 1.32137,0.657376 0.21593,0.141332 0.45827,0.294232 0.64838,0.465336 0.0175,0.0158 0.18837,0.252904 0.18877,0.251134 0.0175,-0.07888 -0.16795,-0.26802 -0.18197,-0.28517"
       id="path25" /><path
       style="fill:none;stroke:#000000;stroke-width:0.731999"
       d="m 122.48847,45.427219 c 0.16385,0.09593 0.068,0.503423 0.068,0.684128 0,0.674005 -0.016,1.24315 -0.15594,1.898269 -0.13347,0.624631 -0.23453,1.238266 -0.5663,1.802247 -0.10026,0.170431 -0.24859,0.307115 -0.3447,0.480107 -0.15159,0.272852 -0.23644,0.577101 -0.43499,0.82726 -0.19395,0.244358 -0.43223,0.453837 -0.60734,0.71647 -0.28855,0.4328 -0.5981,0.865167 -1.03411,1.167027 -0.18584,0.128659 -0.36144,0.27904 -0.54989,0.406244 -0.24568,0.165822 -0.54849,0.237985 -0.80432,0.391475 -0.31092,0.18655 -0.56038,0.441481 -0.86176,0.635217 -0.0968,0.06221 -0.21869,0.08317 -0.32008,0.132953 -0.47307,0.23224 -0.93431,0.444849 -1.42807,0.62783 -0.6903,0.255812 -1.31021,0.695002 -2.01899,0.886351 -0.16761,0.04525 -0.31939,0.180652 -0.47602,0.251132 -0.14849,0.06682 -0.31545,0.07475 -0.45961,0.147725 -0.19494,0.09868 -0.36267,0.232087 -0.5663,0.317614 -0.10207,0.04287 -0.19994,0.0083 -0.30367,0.02954 -0.30407,0.06219 -0.47662,0.115091 -0.7879,0.155115 -0.0968,0.01244 -0.17953,0.05963 -0.27084,0.08864 -0.11178,0.0355 -0.23194,-0.0031 -0.34471,0.02954 -0.34448,0.09965 -0.59652,0.162499 -0.96025,0.162499 -0.12403,0 -0.23234,-0.06768 -0.35291,-0.08125 -0.30827,-0.03467 -0.61726,-0.06538 -0.92743,-0.08864 -0.12074,-0.009 -0.79785,0.09445 -0.83714,0.05909 -0.0132,-0.01191 0.0308,-0.02215 0.0485,-0.02215"
       id="path26" /><path
       style="fill:none;stroke:#000000;stroke-width:0.731999"
       d="m 86.395226,51.473771 c 0.09849,0.0049 0.198411,-0.0027 0.29546,0.01476 0.137898,0.02482 0.405254,0.708546 0.517059,0.849418 0.185841,0.234157 0.400677,0.447776 0.607338,0.664763 0.198892,0.208833 0.374592,0.547738 0.590923,0.716468 0.103698,0.08088 0.23513,0.123016 0.344707,0.192043 0.498261,0.313875 0.968719,0.641225 1.526553,0.842034 0.37618,0.135413 0.77139,0.221546 1.140812,0.3767 0.215265,0.09041 0.395052,0.266401 0.607338,0.361926 0.118602,0.05337 0.264332,0.03942 0.377537,0.09602 0.147285,0.07364 0.25918,0.204428 0.41857,0.265906 0.130591,0.05037 0.27798,0.0735 0.410364,0.118179 0.19736,0.06661 0.343492,0.228608 0.541681,0.288065 0.140518,0.04216 0.294079,0.02857 0.434986,0.07386 0.302035,0.09708 0.648197,0.173504 0.935627,0.30284 0.151834,0.06832 0.287184,0.16792 0.451403,0.206814 0.570183,0.135038 1.139508,0.275434 1.715321,0.413631 0.374694,0.08993 0.728479,0.2456 1.116189,0.29545 0.580835,0.07468 1.16541,0.0241 1.748146,0.05909 0.71645,0.043 1.42578,0.176109 2.1421,0.206817 0.99493,0.04265 2.00608,0.0047 2.99566,-0.07386 0.23906,-0.01897 0.47973,0.04842 0.72224,0.03693 0.6523,-0.0309 1.31631,-0.139575 1.96154,-0.23636 0.23049,-0.03457 0.48822,-0.03426 0.70583,-0.118181 0.11223,-0.04329 0.25111,-0.05318 0.36932,-0.06648 0.0584,-0.0066 0.21824,-0.07364 0.17236,-0.03693 -0.0551,0.04411 -0.22978,0.16143 -0.18056,0.110797 0.0604,-0.06217 0.1313,-0.113255 0.19695,-0.169884"
       id="path27" /></g></svg>
